<?xml version="1.0" encoding="iso-8859-1"?>
<!-- Generator: Adobe Illustrator 19.0.0, SVG Export Plug-In . SVG Version: 6.00 Build 0)  -->
<svg version="1.1" id="Capa_1" xmlns="http://www.w3.org/2000/svg" xmlns:xlink="http://www.w3.org/1999/xlink" x="0px" y="0px"
	 viewBox="0 0 363.2 363.2" style="enable-background:new 0 0 363.2 363.2;" xml:space="preserve">
<g>
	<g>
		<path d="M182,0C119.2,0,67.2,50.8,67.2,114c0,20.4,5.6,40.8,16.4,58.4c0,0.4,0,0.8,0.4,0.8c0.4,0.8,35.6,62.8,37.2,97.2
			c-7.2,4.8-12,12.4-12,21.6c0,14.4,11.6,26,26,26H228c14.4,0,26-11.6,26-26c0-9.2-4.8-17.2-12-22c1.6-34.4,36.8-96.4,37.2-96.8
			c0-0.4,0.4-0.8,0.4-0.8c10.8-17.6,16.4-38,16.4-58.4C296,51.2,244.8,0,182,0z M227.6,305.6h-92.8c-7.6,0-13.6-6-13.6-13.6
			c0-7.6,6-13.6,13.6-13.6h92.8c7.6,0,13.6,6,13.6,13.6C241.2,299.6,235.2,305.6,227.6,305.6z M181.2,128c-3.6,0-6.4,2.8-6.4,6.4
			v58.4l-9.2-8.4C152.4,172,146,158,146,142.8c0.4-31.2,27.2-60,35.2-68.4c8,8,34.8,37.2,35.2,68.4c0,15.6-6.4,29.6-19.6,41.6
			l-9.6,8.8V134C187.2,130.4,184.4,128,181.2,128z M267.6,167.2c-0.4,0.4-0.4,0.8-0.4,1.2c-4.8,8.8-34.4,62.4-38,98h-42v-57.2
			l18-16.4c15.6-14.8,23.6-32,23.6-50.8c-0.4-42-40-78-41.6-79.6c-1.2-1.2-2.8-1.6-4-1.6h-3.6c-1.6,0-2.8,0.4-4,1.6
			C174,64,134.4,100,134,142c0,19.2,7.6,36.4,23.6,50.8l17.6,16V266h-42c-3.2-35.6-33.2-89.2-38-98c0-0.4-0.4-0.8-0.8-1.2
			c-10-16-15.2-34.4-15.2-53.2c0.4-55.6,46-101.2,102-101.2S282.8,58,282.8,114C282.8,132.8,277.6,151.2,267.6,167.2z"/>
		<path d="M216,321.6h-69.2c-11.6,0-20.8,9.2-20.8,20.8s9.2,20.8,20.8,20.8H216c11.2,0,20.8-9.2,20.8-20.8
			C236.8,330.8,227.6,321.6,216,321.6z M216,350.8h-69.2c-4.8,0-8.4-3.6-8.4-8.4s3.6-8.4,8.4-8.4H216c4.8,0,8.4,3.6,8.4,8.4
			S220.8,350.8,216,350.8z"/>
	</g>
</g>
<g>
</g>
<g>
</g>
<g>
</g>
<g>
</g>
<g>
</g>
<g>
</g>
<g>
</g>
<g>
</g>
<g>
</g>
<g>
</g>
<g>
</g>
<g>
</g>
<g>
</g>
<g>
</g>
<g>
</g>
</svg>
