<svg height="511pt" viewBox="0 -31 511.99964 511" width="511pt" xmlns="http://www.w3.org/2000/svg" xmlns:xlink="http://www.w3.org/1999/xlink"><linearGradient id="a" gradientUnits="userSpaceOnUse" x1="183.2419492387" x2="334.0910347615" y1="331.9261324282" y2="181.0773135721"><stop offset="0" stop-color="#b3e152"/><stop offset="1" stop-color="#f6e46f"/></linearGradient><path d="m504.175781 197.320312-234.667969-192c-7.851562-6.429687-19.164062-6.429687-27.015624 0l-234.667969 192c-6.976563 5.714844-9.613281 15.195313-6.582031 23.683594 3.027343 8.492188 11.070312 14.164063 20.089843 14.164063h64v192c0 11.78125 9.550781 21.332031 21.332031 21.332031h298.667969c11.78125 0 21.332031-9.550781 21.332031-21.332031v-192h64c9.019532 0 17.058594-5.671875 20.09375-14.164063 3.03125-8.492187.394532-17.96875-6.582031-23.683594zm0 0" fill="#cfec93"/><path d="m334.089844 181.078125c-4.285156-4.285156-10.214844-6.566406-16.238282-6.21875-17.339843.9375-105.324218 7.101563-134.609374 36.386719-16.121094 16.117187-24.996094 37.546875-24.996094 60.335937 0 22.796875 8.875 44.226563 24.992187 60.339844 16.117188 16.113281 37.546875 24.996094 60.34375 24.996094 22.789063 0 44.21875-8.878907 60.335938-24.992188 29.285156-29.285156 35.449219-117.277343 36.386719-134.613281.328124-6.050781-1.929688-11.949219-6.214844-16.234375zm0 0" fill="url(#a)"/><path d="m199.125 421.140625-42.277344-5.777344c19.121094-139.867187 89.296875-176.453125 92.277344-177.941406l19.082031 38.160156.296875-.152343c-.53125.285156-53.601562 30.257812-69.378906 145.710937zm0 0" fill="#e2f4be"/></svg>